<svg width="483" height="180" viewBox="0 0 483 180" fill="none" xmlns="http://www.w3.org/2000/svg">
<path d="M61.557 56.544L84.725 42.4V15.264L61.557 1.12L38.389 15.264V42.4L61.557 56.544ZM61.557 52.64L41.589 40.48V17.184L61.557 5.024L81.525 17.184V40.48L61.557 52.64ZM93.12 31.904H113.344V36H93.12V31.904ZM144.807 56.544L167.975 42.4V15.264L144.807 1.12L121.639 15.264V42.4L144.807 56.544ZM144.807 52.64L124.839 40.48V17.184L144.807 5.024L164.775 17.184V40.48L144.807 52.64ZM58.549 61.368L61.685 62.584L35.445 115.32L32.373 114.04L58.549 61.368ZM134.426 107H118.938V103.8H123.098V88.248C123.098 86.456 123.012 84.856 122.842 83.448C122.714 82.04 122.415 80.8667 121.946 79.928C121.519 78.9893 120.879 78.2853 120.026 77.816C119.172 77.304 118.063 77.048 116.698 77.048C115.674 77.048 114.735 77.24 113.882 77.624C113.028 77.9653 112.26 78.456 111.578 79.096C110.895 79.736 110.298 80.4827 109.786 81.336C109.316 82.1467 108.932 83.0213 108.634 83.96V103.8H112.794V107H97.1775V103.8H101.914V76.6H97.1775V73.4H108.634V80.184H108.698C109.423 78.0933 110.703 76.344 112.538 74.936C114.415 73.4853 116.698 72.76 119.386 72.76C120.495 72.76 121.583 72.8667 122.65 73.08C123.759 73.2933 124.762 73.6987 125.658 74.296C126.554 74.8933 127.322 75.7253 127.962 76.792C128.644 77.816 129.114 79.1813 129.37 80.888C129.796 79.8213 130.351 78.7973 131.034 77.816C131.759 76.8347 132.591 75.9813 133.53 75.256C134.511 74.488 135.599 73.8907 136.794 73.464C137.988 72.9947 139.29 72.76 140.698 72.76C142.447 72.76 143.962 72.9733 145.242 73.4C146.564 73.8267 147.652 74.5733 148.506 75.64C149.402 76.664 150.063 78.0933 150.49 79.928C150.916 81.72 151.13 84.024 151.13 86.84V103.8H155.866V107H140.25V103.8H144.41V87.032C144.41 85.4533 144.324 84.0453 144.154 82.808C143.983 81.528 143.663 80.4827 143.194 79.672C142.724 78.8187 142.063 78.1787 141.21 77.752C140.356 77.2827 139.226 77.048 137.818 77.048C135.556 77.048 133.786 77.752 132.506 79.16C131.268 80.5253 130.372 82.3387 129.818 84.6V103.8H134.426V107ZM159.943 90.232C159.943 87.416 160.348 84.92 161.159 82.744C161.969 80.568 163.1 78.7547 164.551 77.304C166.044 75.8107 167.836 74.68 169.927 73.912C172.06 73.144 174.407 72.76 176.967 72.76C179.953 72.76 182.513 73.1867 184.647 74.04C186.823 74.8507 188.593 76.024 189.958 77.56C191.324 79.0533 192.327 80.888 192.967 83.064C193.649 85.1973 193.991 87.5867 193.991 90.232C193.991 93.048 193.585 95.544 192.775 97.72C192.007 99.8533 190.876 101.667 189.382 103.16C187.932 104.611 186.14 105.72 184.007 106.488C181.916 107.256 179.569 107.64 176.967 107.64C174.065 107.64 171.548 107.235 169.415 106.424C167.281 105.571 165.511 104.397 164.103 102.904C162.695 101.368 161.649 99.5333 160.967 97.4C160.284 95.2667 159.943 92.8773 159.943 90.232ZM167.175 90.232C167.175 92.28 167.367 94.1787 167.751 95.928C168.135 97.6773 168.753 99.192 169.607 100.472C170.503 101.752 171.633 102.776 172.999 103.544C174.407 104.269 176.113 104.632 178.119 104.632C180.636 104.632 182.705 103.48 184.327 101.176C185.948 98.872 186.759 95.224 186.759 90.232C186.759 88.184 186.567 86.2853 186.183 84.536C185.799 82.744 185.18 81.208 184.327 79.928C183.516 78.6053 182.449 77.5813 181.127 76.856C179.847 76.1307 178.268 75.768 176.391 75.768C173.575 75.768 171.335 76.92 169.671 79.224C168.007 81.528 167.175 85.1973 167.175 90.232ZM215.947 107H199.755V103.8H204.491V62.2H199.051V59H211.211V103.8H215.947V107ZM250.499 102.584C249.389 104.163 247.811 105.421 245.763 106.36C243.757 107.256 241.411 107.704 238.723 107.704C235.907 107.704 233.411 107.299 231.235 106.488C229.101 105.635 227.309 104.461 225.859 102.968C224.408 101.432 223.299 99.5973 222.531 97.464C221.805 95.288 221.443 92.8773 221.443 90.232C221.443 84.5147 222.872 80.184 225.731 77.24C228.589 74.2533 232.6 72.76 237.763 72.76C239.469 72.76 241.133 72.9733 242.755 73.4C244.419 73.8267 245.891 74.5307 247.171 75.512C248.451 76.4933 249.475 77.7947 250.243 79.416C251.053 81.0373 251.458 83.0427 251.458 85.432C251.458 86.1573 251.416 86.9253 251.331 87.736C251.245 88.5467 251.117 89.4 250.947 90.296H228.675C228.675 92.1733 228.909 93.88 229.379 95.416C229.891 96.952 230.637 98.2747 231.619 99.384C232.643 100.493 233.901 101.368 235.395 102.008C236.888 102.605 238.659 102.904 240.707 102.904C242.371 102.904 243.907 102.627 245.315 102.072C246.765 101.517 247.917 100.877 248.771 100.152L250.499 102.584ZM237.507 75.768C236.184 75.768 235.011 75.96 233.987 76.344C233.005 76.728 232.152 77.368 231.427 78.264C230.701 79.16 230.125 80.3547 229.699 81.848C229.272 83.2987 228.995 85.112 228.867 87.288H244.291C244.333 86.904 244.355 86.52 244.355 86.136C244.397 85.7093 244.419 85.3253 244.419 84.984C244.419 82.168 243.843 79.928 242.691 78.264C241.581 76.6 239.853 75.768 237.507 75.768ZM285.661 102.712C284.765 103.949 283.335 105.101 281.373 106.168C279.453 107.192 277.17 107.704 274.525 107.704C271.709 107.704 269.234 107.299 267.101 106.488C265.01 105.635 263.261 104.461 261.853 102.968C260.445 101.432 259.399 99.5973 258.717 97.464C258.034 95.288 257.693 92.8773 257.693 90.232C257.693 84.5573 259.186 80.2267 262.173 77.24C265.202 74.2533 269.298 72.76 274.461 72.76C276.807 72.76 278.749 72.9093 280.285 73.208C281.821 73.5067 283.229 73.976 284.509 74.616V82.936H278.749V76.792C278.109 76.408 276.829 76.216 274.909 76.216C273.287 76.216 271.858 76.4507 270.621 76.92C269.383 77.3893 268.338 78.1573 267.485 79.224C266.631 80.2907 265.991 81.72 265.565 83.512C265.138 85.304 264.925 87.5013 264.925 90.104C264.925 91.8107 265.159 93.4533 265.629 95.032C266.098 96.568 266.802 97.9333 267.741 99.128C268.679 100.28 269.853 101.197 271.26 101.88C272.711 102.563 274.397 102.904 276.317 102.904C277.341 102.904 278.237 102.797 279.005 102.584C279.815 102.371 280.519 102.157 281.117 101.944C281.714 101.688 282.247 101.411 282.717 101.112C283.186 100.813 283.634 100.493 284.061 100.152L285.661 102.712ZM293.881 93.688C293.881 90.872 293.945 87.992 294.073 85.048C294.201 82.104 294.265 79.288 294.265 76.6H289.529V73.4H300.921C300.835 76.728 300.75 79.928 300.665 83C300.622 86.0293 300.601 89.1867 300.601 92.472C300.601 94.2213 300.686 95.7787 300.857 97.144C301.07 98.4667 301.433 99.5973 301.945 100.536C302.499 101.475 303.246 102.179 304.185 102.648C305.123 103.117 306.318 103.352 307.769 103.352C309.902 103.352 311.694 102.669 313.145 101.304C314.595 99.9387 315.705 98.104 316.473 95.8V76.6H311.801V73.4H323.193V103.8H327.929V107H317.241L316.793 99.704H316.473C316.259 100.6 315.833 101.517 315.193 102.456C314.595 103.395 313.827 104.248 312.889 105.016C311.95 105.784 310.862 106.424 309.625 106.936C308.387 107.405 307.043 107.64 305.593 107.64C303.673 107.64 301.987 107.427 300.537 107C299.086 106.616 297.87 105.891 296.889 104.824C295.907 103.757 295.161 102.328 294.649 100.536C294.137 98.744 293.881 96.4613 293.881 93.688ZM348.822 107H332.63V103.8H337.366V62.2H331.926V59H344.086V103.8H348.822V107ZM383.374 102.584C382.264 104.163 380.686 105.421 378.638 106.36C376.632 107.256 374.286 107.704 371.598 107.704C368.782 107.704 366.286 107.299 364.11 106.488C361.976 105.635 360.184 104.461 358.734 102.968C357.283 101.432 356.174 99.5973 355.406 97.464C354.68 95.288 354.318 92.8773 354.318 90.232C354.318 84.5147 355.747 80.184 358.606 77.24C361.464 74.2533 365.475 72.76 370.638 72.76C372.344 72.76 374.008 72.9733 375.63 73.4C377.294 73.8267 378.766 74.5307 380.046 75.512C381.326 76.4933 382.35 77.7947 383.118 79.416C383.928 81.0373 384.333 83.0427 384.333 85.432C384.333 86.1573 384.291 86.9253 384.206 87.736C384.12 88.5467 383.992 89.4 383.822 90.296H361.55C361.55 92.1733 361.784 93.88 362.254 95.416C362.766 96.952 363.512 98.2747 364.494 99.384C365.518 100.493 366.776 101.368 368.27 102.008C369.763 102.605 371.534 102.904 373.582 102.904C375.246 102.904 376.782 102.627 378.19 102.072C379.64 101.517 380.792 100.877 381.646 100.152L383.374 102.584ZM370.382 75.768C369.059 75.768 367.886 75.96 366.862 76.344C365.88 76.728 365.027 77.368 364.302 78.264C363.576 79.16 363 80.3547 362.574 81.848C362.147 83.2987 361.87 85.112 361.742 87.288H377.166C377.208 86.904 377.23 86.52 377.23 86.136C377.272 85.7093 377.294 85.3253 377.294 84.984C377.294 82.168 376.718 79.928 375.566 78.264C374.456 76.6 372.728 75.768 370.382 75.768ZM392.808 103.288C392.808 101.965 393.256 100.92 394.152 100.152C395.048 99.384 396.242 99 397.736 99C399.229 99 400.445 99.384 401.384 100.152C402.322 100.92 402.792 101.965 402.792 103.288C402.792 104.568 402.322 105.592 401.384 106.36C400.445 107.128 399.229 107.512 397.736 107.512C396.242 107.512 395.048 107.128 394.152 106.36C393.256 105.592 392.808 104.568 392.808 103.288ZM429.061 99.384C429.061 98.232 428.634 97.2293 427.781 96.376C426.927 95.48 425.861 94.6693 424.581 93.944C423.301 93.176 421.914 92.4293 420.421 91.704C418.927 90.936 417.541 90.0827 416.26 89.144C414.981 88.1627 413.914 87.032 413.061 85.752C412.207 84.4293 411.781 82.8507 411.781 81.016C411.781 79.7787 412.079 78.6693 412.677 77.688C413.274 76.664 414.063 75.7893 415.045 75.064C416.069 74.3387 417.263 73.784 418.629 73.4C419.994 72.9733 421.445 72.76 422.981 72.76C424.261 72.76 425.391 72.8027 426.373 72.888C427.354 72.9733 428.25 73.1013 429.061 73.272C429.871 73.4 430.639 73.5707 431.365 73.784C432.09 73.9973 432.837 74.232 433.605 74.488V83.128H429.509V78.072L428.293 76.664C427.738 76.536 427.141 76.4293 426.501 76.344C425.861 76.2587 425.178 76.216 424.453 76.216C422.405 76.216 420.869 76.6213 419.845 77.432C418.863 78.2 418.373 79.1813 418.373 80.376C418.373 81.528 418.799 82.5307 419.653 83.384C420.506 84.2373 421.573 85.048 422.853 85.816C424.133 86.5413 425.519 87.2667 427.013 87.992C428.506 88.7173 429.893 89.5493 431.173 90.488C432.453 91.384 433.519 92.4293 434.373 93.624C435.226 94.8187 435.653 96.248 435.653 97.912C435.653 99.448 435.29 100.813 434.565 102.008C433.882 103.203 432.922 104.227 431.685 105.08C430.49 105.891 429.061 106.531 427.397 107C425.775 107.427 424.047 107.64 422.213 107.64C420.165 107.64 418.159 107.384 416.197 106.872C414.277 106.317 412.762 105.677 411.653 104.952V96.568H415.749V101.432L417.029 102.776C417.583 103.203 418.245 103.544 419.013 103.8C419.781 104.056 420.783 104.184 422.021 104.184C424.069 104.184 425.754 103.757 427.077 102.904C428.399 102.051 429.061 100.877 429.061 99.384ZM480.026 107H464.346V103.8H468.57V88.056C468.57 84.5147 468.1 81.8053 467.162 79.928C466.223 78.008 464.559 77.048 462.17 77.048C460.89 77.048 459.695 77.2613 458.586 77.688C457.476 78.1147 456.495 78.6693 455.642 79.352C454.788 80.0347 454.042 80.8027 453.402 81.656C452.804 82.4667 452.356 83.2773 452.058 84.088V103.8H456.282V107H440.602V103.8H445.338V62.2H439.898V59H452.058V80.184H452.122C453.103 78.0933 454.639 76.344 456.73 74.936C458.863 73.4853 461.402 72.76 464.346 72.76C466.01 72.76 467.524 72.9733 468.89 73.4C470.255 73.784 471.407 74.5093 472.346 75.576C473.284 76.6427 474.01 78.072 474.522 79.864C475.034 81.656 475.29 83.9387 475.29 86.712V103.8H480.026V107ZM26.432 173.544L49.6 159.4V132.264L26.432 118.12L3.264 132.264V159.4L26.432 173.544ZM26.432 169.64L6.464 157.48V134.184L26.432 122.024L46.4 134.184V157.48L26.432 169.64Z" fill="darkblue"/>
</svg>
